<?xml version="1.0" encoding="UTF-8" standalone="no"?>
<!-- Created with Inkscape (http://www.inkscape.org/) -->

<svg
   width="38"
   height="28"
   viewBox="0 0 10.054166 7.4083327"
   version="1.1"
   id="svg5"
   inkscape:version="1.1.2 (0a00cf5339, 2022-02-04)"
   sodipodi:docname="BiletMajster.svg"
   xmlns:inkscape="http://www.inkscape.org/namespaces/inkscape"
   xmlns:sodipodi="http://sodipodi.sourceforge.net/DTD/sodipodi-0.dtd"
   xmlns:xlink="http://www.w3.org/1999/xlink"
   xmlns="http://www.w3.org/2000/svg"
   xmlns:svg="http://www.w3.org/2000/svg">
  <sodipodi:namedview
     id="namedview7"
     pagecolor="#505050"
     bordercolor="#ffffff"
     borderopacity="1"
     inkscape:pageshadow="0"
     inkscape:pageopacity="0"
     inkscape:pagecheckerboard="1"
     inkscape:document-units="px"
     showgrid="false"
     inkscape:snap-bbox="true"
     inkscape:bbox-paths="true"
     inkscape:bbox-nodes="true"
     inkscape:snap-bbox-edge-midpoints="true"
     inkscape:snap-bbox-midpoints="true"
     inkscape:object-paths="true"
     inkscape:snap-midpoints="true"
     inkscape:snap-smooth-nodes="true"
     inkscape:snap-intersection-paths="true"
     inkscape:snap-object-midpoints="true"
     inkscape:snap-center="true"
     inkscape:snap-text-baseline="true"
     inkscape:snap-page="true"
     units="px"
     width="38px"
     inkscape:zoom="8.1958473"
     inkscape:cx="3.7213968"
     inkscape:cy="12.445327"
     inkscape:window-width="1920"
     inkscape:window-height="1022"
     inkscape:window-x="1920"
     inkscape:window-y="32"
     inkscape:window-maximized="1"
     inkscape:current-layer="layer1" />
  <defs
     id="defs2">
    <linearGradient
       inkscape:collect="always"
       id="linearGradient3909">
      <stop
         style="stop-color:#64e064;stop-opacity:1"
         offset="0"
         id="stop3905" />
      <stop
         style="stop-color:#3f943f;stop-opacity:1"
         offset="1"
         id="stop3907" />
    </linearGradient>
    <linearGradient
       inkscape:collect="always"
       id="linearGradient1982">
      <stop
         style="stop-color:#beffbe;stop-opacity:1;"
         offset="0"
         id="stop1978" />
      <stop
         style="stop-color:#7ced7c;stop-opacity:1"
         offset="1"
         id="stop1980" />
    </linearGradient>
    <linearGradient
       inkscape:collect="always"
       xlink:href="#linearGradient3909"
       id="linearGradient3111"
       x1="30"
       y1="9"
       x2="30"
       y2="23"
       gradientUnits="userSpaceOnUse"
       gradientTransform="matrix(0.26458331,0,0,0.26458331,1.3295313,0.53578128)" />
    <linearGradient
       inkscape:collect="always"
       xlink:href="#linearGradient1982"
       id="linearGradient4097"
       gradientUnits="userSpaceOnUse"
       x1="30"
       y1="9"
       x2="30"
       y2="23"
       gradientTransform="matrix(0.26458331,0,0,0.26458331,0.27119804,-1.5808851)" />
    <filter
       inkscape:collect="always"
       style="color-interpolation-filters:sRGB"
       id="filter4839"
       x="-0.10803574"
       y="-0.21607147"
       width="1.2160715"
       height="1.4321429">
      <feGaussianBlur
         inkscape:collect="always"
         stdDeviation="0.22324217"
         id="feGaussianBlur4841" />
    </filter>
    <filter
       inkscape:collect="always"
       style="color-interpolation-filters:sRGB"
       id="filter4843"
       x="-0.10803574"
       y="-0.21607148"
       width="1.2160715"
       height="1.432143">
      <feGaussianBlur
         inkscape:collect="always"
         stdDeviation="0.22324217"
         id="feGaussianBlur4845" />
    </filter>
  </defs>
  <g
     inkscape:label="Warstwa 1"
     inkscape:groupmode="layer"
     id="layer1">
    <path
       id="rect846-0"
       style="opacity:0.25;fill:#000000;fill-opacity:0.994959;stroke:#000000;stroke-width:0.529167;stroke-miterlimit:4;stroke-dasharray:none;stroke-opacity:1;paint-order:markers stroke fill;filter:url(#filter4843)"
       d="M 2.6524478,2.9170311 A 0.79374993,0.79374993 0 0 1 1.8586979,3.710781 V 5.8274475 A 0.79374993,0.79374993 0 0 1 2.6524478,6.6211974 H 8.4732807 A 0.79374993,0.79374993 0 0 1 9.2670306,5.8274475 V 3.710781 A 0.79374993,0.79374993 0 0 1 8.4732807,2.9170311 Z" />
    <path
       id="rect846"
       style="fill:url(#linearGradient3111);fill-opacity:1;stroke:none;stroke-width:0.195585;paint-order:markers stroke fill"
       d="M 2.6524478,2.9170311 A 0.79374993,0.79374993 0 0 1 1.8586979,3.710781 V 5.8274475 A 0.79374993,0.79374993 0 0 1 2.6524478,6.6211974 H 8.4732807 A 0.79374993,0.79374993 0 0 1 9.2670306,5.8274475 V 3.710781 A 0.79374993,0.79374993 0 0 1 8.4732807,2.9170311 Z" />
    <path
       id="rect846-2-2"
       style="opacity:0.25;fill:#000000;fill-opacity:0.994959;stroke:#000000;stroke-width:0.529167;stroke-miterlimit:4;stroke-dasharray:none;stroke-opacity:1;paint-order:markers stroke fill;filter:url(#filter4839)"
       d="M 1.5941146,0.80036468 A 0.79374993,0.79374993 0 0 1 0.80036472,1.5941147 v 2.1166664 a 0.79374993,0.79374993 0 0 1 0.79374988,0.79375 h 5.8208329 a 0.79374993,0.79374993 0 0 1 0.7937499,-0.79375 V 1.5941147 A 0.79374993,0.79374993 0 0 1 7.4149475,0.80036468 Z" />
    <path
       id="rect846-2"
       style="fill:url(#linearGradient4097);fill-opacity:1;stroke:none;stroke-width:0.195585;paint-order:markers stroke fill"
       d="M 1.5941146,0.80036468 A 0.79374993,0.79374993 0 0 1 0.80036466,1.5941147 v 2.1166664 a 0.79374993,0.79374993 0 0 1 0.79374994,0.79375 h 5.8208329 a 0.79374993,0.79374993 0 0 1 0.7937499,-0.79375 V 1.5941147 A 0.79374993,0.79374993 0 0 1 7.4149475,0.80036468 Z" />
  </g>
</svg>
